<svg xmlns="http://www.w3.org/2000/svg" xmlns:xlink="http://www.w3.org/1999/xlink"><symbol id="email" viewBox="0 0 26 20">
<path d="M24.2273 0H1.77273C0.768182 0 0 0.764706 0 1.76471V18.2353C0 19.2353 0.768182 20 1.77273 20H24.2273C25.2318 20 26 19.2353 26 18.2353V1.76471C26 0.764706 25.2318 0 24.2273 0ZM24.2273 17L19.5591 12.3529C19.2045 12 18.6727 12 18.3182 12.3529C17.9636 12.7059 17.9636 13.2353 18.3182 13.5882L22.9864 18.2353H3.01362L7.68182 13.5882C8.03636 13.2353 8.03636 12.7059 7.68182 12.3529C7.32727 12 6.79547 12 6.44092 12.3529L1.77273 17V5.70585L12.4091 13.7059C12.5864 13.8236 12.7636 13.8823 12.9409 13.8823C13.1182 13.8823 13.2954 13.8236 13.4727 13.7059L24.2273 5.70585V17ZM24.2273 1.76471V3.4706L12.9409 11.8235L1.77273 3.4706V1.76471H24.2273Z" fill="#0AD9C6"/>
</symbol><symbol id="logo" viewBox="0 0 68 21">
<path d="M13.3636 0V20.0455H10.0705V5.82273L8.97273 7.20682L6.825 9.975L6.72954 10.0705L6.58636 9.975L4.43864 7.20682L3.34091 5.775V20.0455H0V0H3.34091L6.72954 4.29545L10.0705 0H13.3636Z" fill="#0AD9C6"/>
<path d="M8.30444 10.0704L8.20898 9.97498L8.30444 10.0704Z" fill="#0AD9C6"/>
<path d="M8.44787 9.97498L8.35241 10.0704H8.30469L8.44787 9.97498Z" fill="#0AD9C6"/>
<path d="M38.2092 5.61453L29.0823 12.316L31.1955 15.194L40.3224 8.49252L38.2092 5.61453Z" fill="#0AD9C6"/>
<rect x="37" y="3" width="6" height="4" fill="#0AD9C6"/>
<path d="M26.6674 3C22.8035 3 19.6243 6.13028 19.6243 10.0431C19.6243 13.9071 22.7546 17.0863 26.6674 17.0863C30.5313 17.0863 33.7105 13.956 33.7105 10.0431C33.7105 6.17919 30.5313 3 26.6674 3ZM26.6674 13.2712C24.8577 13.2712 23.4393 11.8039 23.4393 10.0431C23.4393 8.23344 24.9066 6.81503 26.6674 6.81503C28.4282 6.81503 29.8955 8.28235 29.8955 10.0431C29.8955 11.8039 28.4282 13.2712 26.6674 13.2712Z" fill="#0AD9C6"/>
<path d="M43.6396 3C39.7756 3 36.5964 6.13028 36.5964 10.0431C36.5964 13.9071 39.7267 17.0863 43.6396 17.0863C47.5035 17.0863 50.6827 13.956 50.6827 10.0431C50.6338 6.17919 47.5035 3 43.6396 3ZM43.6396 13.2712C41.8299 13.2712 40.4115 11.8039 40.4115 10.0431C40.4115 8.23344 41.8788 6.81503 43.6396 6.81503C45.4004 6.81503 46.8677 8.28235 46.8677 10.0431C46.8677 11.8039 45.4004 13.2712 43.6396 13.2712Z" fill="#0AD9C6"/>
<path d="M67.5977 0.238647V20.2841H64.2568V9.87956L61.4409 7.20683L59.3409 5.15456V20.2841H56V0.238647H59.2932H59.3409L63.2545 4.0091L64.2568 4.96365V0.238647H67.5977Z" fill="#0AD9C6"/>
</symbol><symbol id="phone" viewBox="0 0 17 24">
<path fill-rule="evenodd" clip-rule="evenodd" d="M5.20084 2.61452C5.16571 2.61495 5.1003 2.62208 4.99353 2.65376L4.98502 2.65628C4.19308 2.88349 3.60859 3.24444 3.15493 3.8844L3.14887 3.89295L3.14262 3.90138C2.60655 4.62458 2.37976 5.55583 2.45087 6.56334L2.45098 6.56495C2.49343 7.18037 2.57949 7.85118 2.75654 8.49835C3.98147 12.7134 6.01101 16.4385 8.82158 19.6415C9.39852 20.2916 10.1396 20.866 10.8995 21.3114L10.9047 21.3144C11.9382 21.9285 13.4648 21.666 14.4363 20.6073L14.4437 20.5992C14.6873 20.3396 14.6845 20.2256 14.6834 20.1966C14.6812 20.1323 14.6409 19.915 14.2696 19.4756C13.9927 19.1585 13.6989 18.8598 13.3803 18.5365L13.3709 18.527C13.0634 18.2149 12.7323 17.8788 12.4134 17.5141C12.0245 17.0977 11.7389 16.9159 11.5175 16.85C11.3357 16.7958 11.0872 16.7863 10.6742 16.9932C10.322 17.1746 9.9352 17.3027 9.51965 17.2979C9.08211 17.293 8.70791 17.1421 8.39673 16.9223C8.10528 16.7164 7.86824 16.4498 7.67122 16.1985C7.47966 15.9542 7.28415 15.6689 7.09028 15.3859L7.06479 15.3487L7.06042 15.3421C6.32097 14.2263 5.89398 13.341 5.63214 12.798C5.59874 12.7288 5.56803 12.6651 5.5397 12.6072C5.14242 11.8269 4.76772 11.0364 4.73274 10.2531C4.69218 9.34516 5.09586 8.62793 5.75302 7.97717C5.86803 7.85475 6.01212 7.63614 6.12087 7.37613C6.23162 7.11132 6.26003 6.91351 6.25567 6.82269C6.14457 5.93004 5.91472 5.11161 5.66557 4.22445C5.54578 3.79788 5.42152 3.35542 5.30385 2.88118C5.26379 2.72827 5.22383 2.65017 5.20084 2.61452ZM6.20151 0.878562C6.78417 1.22426 7.08317 1.81469 7.2345 2.39807L7.23726 2.40871C7.32374 2.75763 7.4285 3.13211 7.53823 3.52412C7.80859 4.48995 8.10875 5.56228 8.23794 6.62139L8.24003 6.63851L8.24153 6.65569C8.28846 7.19196 8.14072 7.73837 7.96036 8.16962C7.77546 8.61172 7.5051 9.05478 7.1864 9.38633L7.17699 9.39611L7.16732 9.40563C6.74132 9.82504 6.71827 10.0318 6.72504 10.1834C6.73751 10.4626 6.88759 10.8724 7.3164 11.7143L7.31995 11.7212L7.3234 11.7283C7.35542 11.7936 7.38913 11.8634 7.42501 11.9377C7.68383 12.4737 8.05518 13.2427 8.71216 14.235C8.9229 14.5425 9.08396 14.7771 9.23245 14.9665C9.38346 15.1591 9.47747 15.2464 9.53179 15.2848C9.53449 15.2867 9.53689 15.2884 9.53901 15.2898C9.5688 15.2839 9.6368 15.2651 9.75367 15.2047L9.7634 15.1996C10.5286 14.8147 11.2999 14.6993 12.0656 14.9272C12.7906 15.143 13.3776 15.629 13.8744 16.1637L13.8852 16.1754L13.8957 16.1874C14.1741 16.5066 14.4695 16.8069 14.7899 17.1321L14.7993 17.1416C15.1104 17.4574 15.4457 17.7977 15.768 18.1673L15.7728 18.1727L15.7774 18.1783C16.2747 18.7651 16.6508 19.4162 16.6765 20.1459C16.7033 20.909 16.3418 21.5123 15.9046 21.9795C14.4181 23.596 11.8902 24.2172 9.90597 23.0402C9.00046 22.5092 8.08234 21.8061 7.3375 20.9662L7.33404 20.9622C4.31891 17.5267 2.14616 13.5322 0.840497 9.03525L0.83844 9.02816L0.836486 9.02105C0.610162 8.19702 0.509451 7.37942 0.461454 6.68358C0.364028 5.29875 0.66713 3.87383 1.53316 2.70065C2.29781 1.62636 3.29792 1.04972 4.41595 0.72826C4.9654 0.566079 5.61255 0.529129 6.20151 0.878562Z" fill="#0AD9C6"/>
</symbol></svg>