<svg width="152" height="152" viewBox="0 0 152 152" fill="none" xmlns="http://www.w3.org/2000/svg">
<rect width="152" height="152" fill="#0AD9C6"/>
<path d="M89.3808 56.1012L48.3008 86.2644L57.8121 99.2181L98.8921 69.0549L89.3808 56.1012Z" fill="#070707"/>
<path d="M83.9165 44.3333H110.833V52.5417C110.833 58.0645 106.356 62.5417 100.833 62.5417H83.9165V44.3333Z" fill="#070707"/>
<path d="M37.4313 44.3333C20.0399 44.3333 5.73047 58.4226 5.73047 76.0342C5.73047 93.4256 19.8197 107.735 37.4313 107.735C54.8227 107.735 69.1321 93.6457 69.1321 76.0342C69.1321 58.6427 54.8227 44.3333 37.4313 44.3333ZM37.4313 90.5637C29.2859 90.5637 22.9017 83.9594 22.9017 76.0342C22.9017 67.8888 29.5061 61.5046 37.4313 61.5046C45.3565 61.5046 51.9608 68.109 51.9608 76.0342C51.9608 83.9594 45.3565 90.5637 37.4313 90.5637Z" fill="#070707"/>
<path d="M113.822 44.3333C96.431 44.3333 82.1216 58.4226 82.1216 76.0342C82.1216 93.4256 96.2108 107.735 113.822 107.735C131.214 107.735 145.523 93.6457 145.523 76.0342C145.303 58.6427 131.214 44.3333 113.822 44.3333ZM113.822 90.5637C105.677 90.5637 99.2928 83.9594 99.2928 76.0342C99.2928 67.8888 105.897 61.5046 113.822 61.5046C121.748 61.5046 128.352 68.109 128.352 76.0342C128.352 83.9594 121.748 90.5637 113.822 90.5637Z" fill="#070707"/>
</svg>
